<svg width="17" height="14" viewBox="0 0 17 14" fill="none" xmlns="http://www.w3.org/2000/svg">
<path d="M16.2501 2.49984C16.0001 2.58317 15.7501 2.6665 15.5001 2.74984C15.8334 2.4165 16.0834 1.99984 16.1667 1.49984C16.1667 1.4165 16.1667 1.24984 16.0834 1.24984C16.0001 1.24984 15.8334 1.24984 15.7501 1.24984C15.1667 1.58317 14.5834 1.83317 14.0001 1.9165C13.3334 1.33317 12.5001 0.916504 11.5834 0.916504C9.75008 0.916504 8.16675 2.4165 8.16675 4.33317C8.16675 4.49984 8.16675 4.6665 8.16675 4.74984C5.83342 4.58317 3.66675 3.4165 2.16675 1.58317C2.08341 1.49984 2.00008 1.49984 1.91675 1.49984C1.83341 1.49984 1.75008 1.58317 1.75008 1.6665C1.41675 2.1665 1.25008 2.74984 1.25008 3.4165C1.25008 4.24984 1.58341 4.99984 2.08342 5.58317C1.91675 5.49984 1.75008 5.49984 1.66675 5.4165C1.66675 5.4165 1.58341 5.4165 1.50008 5.4165C1.41675 5.49984 1.33341 5.58317 1.33341 5.6665C1.33341 5.6665 1.33341 5.6665 1.33341 5.74984C1.33341 6.99984 2.00008 8.08317 3.00008 8.6665C2.91675 8.6665 2.83342 8.6665 2.75008 8.6665C2.66675 8.6665 2.58342 8.6665 2.50008 8.74984C2.41675 8.83317 2.41675 8.9165 2.41675 8.99984C2.75008 10.1665 3.75008 10.9998 4.91675 11.2498C3.91675 11.8332 2.83342 12.1665 1.66675 12.1665C1.41675 12.1665 1.16675 12.1665 0.916748 12.0832C0.833415 12.0832 0.666748 12.1665 0.666748 12.2498C0.666748 12.3332 0.666748 12.4998 0.750081 12.5832C2.25008 13.4998 3.91675 13.9998 5.66675 13.9998C9.16675 13.9998 11.3334 12.3332 12.5001 10.9998C14.0001 9.33317 14.8334 6.99984 14.8334 4.83317C14.8334 4.74984 14.8334 4.6665 14.8334 4.58317C15.4167 4.1665 15.9167 3.58317 16.3334 2.99984C16.4167 2.9165 16.4167 2.74984 16.3334 2.6665C16.4167 2.49984 16.3334 2.49984 16.2501 2.49984Z" fill="#DA291C"/>
</svg>
