<svg width="16" height="14" viewBox="0 0 16 14" fill="none" xmlns="http://www.w3.org/2000/svg">
<path d="M1.50005 6.33326C1.50005 6.33326 8.25005 3.58325 10.5834 2.58325C11.5 2.16659 14.5 0.916588 14.5 0.916588C14.5 0.916588 15.9167 0.333254 15.75 1.66659C15.75 2.24992 15.4167 4.16659 15.0834 6.16659C14.5834 9.08326 14.0834 12.3333 14.0834 12.3333C14.0834 12.3333 14 13.2499 13.3334 13.4166C12.6667 13.5833 11.5834 12.8333 11.4167 12.7499C11.25 12.6666 8.50005 10.9166 7.50005 9.99992C7.25005 9.74992 6.91671 9.33326 7.50005 8.74992C8.91671 7.49992 10.5834 5.83325 11.5834 4.83325C12.0834 4.33325 12.5 3.24992 10.5834 4.58325C7.83338 6.49992 5.08338 8.33326 5.08338 8.33326C5.08338 8.33326 4.50005 8.74992 3.25005 8.33326C2.08338 7.99992 0.750047 7.49992 0.750047 7.49992C0.750047 7.49992 -0.16662 6.99992 1.50005 6.33326Z" fill="#DA291C"/>
</svg>
