<svg width="13" height="17" viewBox="0 0 13 17" fill="none" xmlns="http://www.w3.org/2000/svg">
<path fill-rule="evenodd" clip-rule="evenodd" d="M7.83156 6.20693C8.30498 5.96256 8.90737 5.60284 9.51047 5.10998C9.63764 5.38335 9.65156 5.6219 9.58605 5.81453C9.53962 5.95027 9.45213 6.06835 9.33709 6.16228C9.21251 6.2638 9.05692 6.33771 8.88493 6.37766C8.55858 6.45376 8.17756 6.40932 7.83156 6.20693ZM7.91364 8.71076L8.54032 9.08549C7.26075 9.8279 6.9129 11.2064 6.49968 12.5491C6.08652 11.2064 5.73862 9.8279 4.4591 9.08549L5.08578 8.71076C5.1464 8.68705 5.19822 8.64408 5.2338 8.58801C5.26939 8.53193 5.28692 8.46564 5.28387 8.39863C5.22646 7.14115 5.55445 6.58507 5.99686 6.23593C6.15554 6.11086 6.32877 6.04806 6.49968 6.04806C6.67059 6.04806 6.84382 6.11086 7.00256 6.23593C7.44497 6.58507 7.77296 7.14115 7.71554 8.39863C7.7125 8.46564 7.73003 8.53193 7.76562 8.58801C7.8012 8.64408 7.85302 8.68705 7.91364 8.71076ZM6.49968 0.5C7.22407 0.520133 7.95027 0.665708 8.58051 0.948903C9.01694 1.14526 9.42417 1.40464 9.79291 1.7148C9.95944 1.85483 10.0966 1.99009 10.2476 2.14582C10.655 2.1604 11.2504 1.69189 11.5268 1.25351C11.0511 2.86787 8.88039 4.77429 7.3776 5.50378C7.37698 5.50351 7.37656 5.50313 7.3761 5.50281C7.1064 5.28963 6.80307 5.18304 6.49968 5.18304C6.1963 5.18304 5.89302 5.28963 5.62332 5.50281C5.62285 5.50308 5.62244 5.50356 5.62182 5.50378C4.11898 4.77429 1.94834 2.86787 1.47266 1.25351C1.74901 1.69189 2.34438 2.1604 2.75176 2.14582C2.90286 1.99015 3.03998 1.85483 3.20645 1.7148C3.5752 1.40464 3.98243 1.14526 4.41886 0.948903C5.04915 0.665708 5.77535 0.520133 6.49968 0.5ZM5.1678 6.20693C4.69444 5.96256 4.092 5.60284 3.48895 5.10998C3.36178 5.38335 3.34785 5.6219 3.41332 5.81453C3.4598 5.95027 3.54729 6.06835 3.66228 6.16228C3.78691 6.2638 3.9425 6.33771 4.11449 6.37766C4.44083 6.45376 4.82181 6.40932 5.1678 6.20693Z" fill="#DA291C"/>
<path fill-rule="evenodd" clip-rule="evenodd" d="M10.1713 4.50645C10.5033 4.1596 10.7959 3.77568 11.0311 3.43311L11.1506 3.66589C11.5352 4.46249 11.7351 5.2559 11.7351 6.14879L11.7343 7.56567L11.7415 8.30017C11.7693 10.1034 12.1462 11.9278 13 13.5973L11.2137 12.1062L9.94975 14.2295L8.62189 12.9355L6.5 16.5L4.37811 12.9355L3.05031 14.2295L1.78637 12.1063L0 13.5974C0.85377 11.9278 1.23067 10.1034 1.25858 8.30022L1.2658 7.56572L1.26497 6.14884C1.26497 5.2559 1.46477 4.46249 1.84951 3.66594L1.96893 3.43316C2.20417 3.77574 2.49667 4.1596 2.82874 4.5065L2.72505 4.72945C2.5236 5.1625 2.4569 5.6467 2.61383 6.10719C2.71499 6.40379 2.89962 6.65814 3.13764 6.85232C3.36875 7.04088 3.64227 7.16798 3.92863 7.23473C4.11517 7.2782 4.30522 7.29609 4.49403 7.29C4.44997 7.54853 4.43073 7.81666 4.42949 8.08987L2.74444 9.09736L4.04475 9.85189C4.14868 9.91221 4.24762 9.98132 4.34056 10.0585C5.41259 11.0549 6.05712 14.0026 6.50005 15.4423C6.94303 14.0026 7.58751 11.0549 8.6596 10.0585C8.75253 9.9813 8.85146 9.9122 8.9554 9.85189L10.2557 9.09736L8.57061 8.08987C8.56937 7.81666 8.55013 7.54853 8.50607 7.29C8.69488 7.29609 8.88493 7.2782 9.07147 7.23473C9.35783 7.16798 9.6314 7.04088 9.86246 6.85232C10.1004 6.65814 10.2851 6.40379 10.3862 6.10719C10.5432 5.6467 10.4765 5.16255 10.2751 4.72945L10.1714 4.5065L10.1713 4.50645Z" fill="#DA291C"/>
</svg>
